<?xml version="1.0"?>
<svg xmlns="http://www.w3.org/2000/svg" id="filled_outline" data-name="filled outline" viewBox="0 0 512 512" width="512" height="512"><path d="M432,199.79A16.21752,16.21752,0,0,1,415.79,216a25.55305,25.55305,0,0,1-22.8501-14.12L392,200l-84.18994-42.1001-.37988-.18994a28.42425,28.42425,0,0,1-4.79,5.72A28.798,28.798,0,0,1,296,168v32H216V168a28.87964,28.87964,0,0,1-11.42993-10.29l-.56006.28L120,200l-.93994,1.88A25.57512,25.57512,0,0,1,96.21,216a16.21338,16.21338,0,0,1-10.12988-28.87L191.23,103.01A32.15016,32.15016,0,0,1,211.22,96h89.5603A32.15016,32.15016,0,0,1,320.77,103.01l105.1499,84.12A16.23967,16.23967,0,0,1,432,199.79Z" style="fill:#ffceb6"/><path d="M312,142.11a28.97523,28.97523,0,0,1-4.31982,15.22l.12988.56994-.37988-.18994a28.42425,28.42425,0,0,1-4.79,5.72A28.798,28.798,0,0,1,296,168v32H216V168a28.87964,28.87964,0,0,1-11.42993-10.29l-.56006.28.31006-.66A28.97544,28.97544,0,0,1,200,142.11V98.04A31.8906,31.8906,0,0,1,211.22,96h89.5603A31.88924,31.88924,0,0,1,312,98.04Z" style="fill:#ef5e3b"/><polygon points="183.529 319.529 168 328 176 384 192 384 208 344 183.529 319.529" style="fill:#e0edff"/><polygon points="218.323 300.551 183.529 319.529 208 344 217.006 341.229 218.323 300.551" style="fill:#ffbfa1"/><path d="M312,252.84v29.62a39.99933,39.99933,0,0,1-28.24023,38.23L256,329.23V200h40a95.3275,95.3275,0,0,1,16,52.84Z" style="fill:#ffceb6"/><path d="M256,200V392H216L205.33008,280,202.73,252.71A81.20045,81.20045,0,0,1,216,200Z" style="fill:#ffceb6"/><path d="M272,40l11.02944-11.02945a16.97057,16.97057,0,0,1,12-4.97055h0A16.97054,16.97054,0,0,1,312,40.97052v18.1851A53.8962,53.8962,0,0,0,336,104l0,0H311.99994A31.99994,31.99994,0,0,1,280,72.00006L272,56Z" style="fill:#b1712c"/><path d="M280,64l-.20351,21.80813C280,93.25484,269.25484,104,256,104h0a24,24,0,0,1-24-24V64Z" style="fill:#ffceb6"/><path d="M280,64V56a24,24,0,0,0-24-24h0a24,24,0,0,0-24,24v8Z" style="fill:#c78640"/><polygon points="216 392 208 408 240 456 256 456 256 392 216 392" style="fill:#e0edff"/><path d="M307.91016,225.24A94.98653,94.98653,0,0,0,296,200H216a81.20045,81.20045,0,0,0-13.27,52.71l2.6001,27.29H312V252.84A95.08784,95.08784,0,0,0,307.91016,225.24Z" style="fill:#ffb401"/><path d="M186.2373,96.76514,81.085,180.88672a24.206,24.206,0,0,0,7.124,41.74878v105.574C88.209,420.72949,163.47949,496,256,496s167.791-75.27051,167.791-167.79053V222.6355a24.20573,24.20573,0,0,0,7.123-41.74927l-89.16357-71.33081a7.99119,7.99119,0,0,0-1.313-12.21167A45.8058,45.8058,0,0,1,320,59.15576V40.9707A24.97075,24.97075,0,0,0,277.37207,23.314l-5.13037,5.13038A31.97843,31.97843,0,0,0,224,56V80a31.94168,31.94168,0,0,0,1.0127,8H211.22461A40.148,40.148,0,0,0,186.2373,96.76514ZM234.86792,104A31.85935,31.85935,0,0,0,256,112a35.032,35.032,0,0,0,24.58691-10.49316c.74805-.7688,1.43555-1.557,2.07276-2.35743A39.99243,39.99243,0,0,0,304,111.19507v30.91626a20.83053,20.83053,0,0,1-11.57812,18.7334A7.99967,7.99967,0,0,0,288,168v24H224V168a7.99967,7.99967,0,0,0-4.42188-7.15527A20.83053,20.83053,0,0,1,208,142.11133V104.24048A23.81365,23.81365,0,0,1,211.22461,104ZM271.7998,86.01416C271.75,88.08154,265.71387,96,256,96a16.01833,16.01833,0,0,1-16-16V72h31.9248l-.12792,13.7334C271.7959,85.83105,271.79688,85.9165,271.7998,86.01416ZM201.71631,326.40234l-4.96973-4.96972,4.27442-2.33155Zm-19.61109,3.01685L198.613,345.927,186.584,376h-3.6455l-6.2334-43.63525ZM220.94434,400H248v48h-3.71875l-27.0498-40.57471Zm2.32983-16-9.14307-96H248v96ZM264,288h39.51465a31.80746,31.80746,0,0,1-22.10352,25.042L264,318.39941Zm40-16H264V240H248v32H212.60718l-1.90894-20.04395A73.39489,73.39489,0,0,1,220.44507,208H291.583A86.95127,86.95127,0,0,1,304,252.84424ZM91.08105,193.38037,192,112.645v29.46631a37.15033,37.15033,0,0,0,1.97754,11.95556l-77.55566,38.77784a8.00061,8.00061,0,0,0-3.57715,3.57666l-.93848,1.87695A17.45417,17.45417,0,0,1,96.209,208a8.20923,8.20923,0,0,1-5.12793-14.61963ZM256,480c-83.69824,0-151.791-68.09277-151.791-151.79053V223.02832a33.31873,33.31873,0,0,0,21.7461-17.06152l76.39233-38.19617A36.88257,36.88257,0,0,0,208,172.5542v25.08594a89.44491,89.44491,0,0,0-13.22949,55.83252l4.60034,48.303L164.169,320.97705a8.00077,8.00077,0,0,0-4.08887,8.1543l8,56A8.00031,8.00031,0,0,0,176,392h16a7.99975,7.99975,0,0,0,7.42773-5.02881l6.50782-16.26929,1.883,19.77271-6.97387,13.94775a7.99823,7.99823,0,0,0,.499,8.01514l32,48A7.99943,7.99943,0,0,0,240,464h16a8.00008,8.00008,0,0,0,8-8V335.13928l22.11621-6.80481A47.75985,47.75985,0,0,0,320,282.457V252.84424a102.91943,102.91943,0,0,0-16-55.21387V172.5542a36.86819,36.86819,0,0,0,5.65234-4.78357l76.39258,38.19617a33.317,33.317,0,0,0,21.7461,17.06152V328.20947C407.791,411.90723,339.69824,480,256,480ZM424,199.79053A8.21849,8.21849,0,0,1,415.791,208a17.45374,17.45374,0,0,1-15.69727-9.70215l-.93848-1.87646a8.00061,8.00061,0,0,0-3.57715-3.57666l-77.55566-38.77784A37.14352,37.14352,0,0,0,320,142.11133v-29.4668l100.919,80.73535A8.17065,8.17065,0,0,1,424,199.79053ZM295.0293,32A8.98108,8.98108,0,0,1,304,40.9707V59.15576A61.78057,61.78057,0,0,0,316.14258,96H312a24.02718,24.02718,0,0,1-24-24h-.07373L288,56a31.79428,31.79428,0,0,0-4.44434-16.2417l5.13086-5.13086A8.91037,8.91037,0,0,1,295.0293,32ZM256,40a16.01833,16.01833,0,0,1,16,16H240A16.01833,16.01833,0,0,1,256,40Z"/></svg>
