<svg id="flat" height="512" viewBox="0 0 512 512" width="512" xmlns="http://www.w3.org/2000/svg"><path d="m16 32h480v32h-480z" fill="#8098ab"/><path d="m336 344.39014a47.61537 47.61537 0 0 1 -47.61 47.60986h-96.39l-16-32 1.87-.29 61.21-9.41016 40.92-6.29984-24-48v-48h48l20.85 57.3501 8.28 22.77a47.08835 47.08835 0 0 1 2.15 8.00976 47.58715 47.58715 0 0 1 .72 8.26028z" fill="#ffbfa1"/><path d="m280 440-78-48-.1-.06006a54.41195 54.41195 0 0 1 -22.62-64.94971l7.87-21.64013 20.85-57.3501h48v48l-24 48 7.08 6.2998 46.92 41.7002 18 16z" fill="#ffceb6"/><path d="m352 44v105.87988a31.99753 31.99753 0 0 1 -15.54 27.44019l-9.16992 5.5-15.29008 9.17993-8 56h-96l-8-56-15.29-9.17993-9.17-5.5a31.9976 31.9976 0 0 1 -15.54-27.44019v-105.87988a20 20 0 0 1 40 0v92l9.85 4.91992 22.15 11.08008h48l22.15991-11.08008 9.84009-4.91992v-92a20 20 0 0 1 40 0z" fill="#ffceb6"/><path d="m327.29 182.82-15.29 9.18-8 56h-96l-8-56-15.29-9.18 25.14-41.9 22.15 11.08h48l22.16-11.08z" fill="#548aff"/><path d="m324.85 305.35-52.85 22.65-16-32-16 32-52.85-22.65 20.85-57.35h96z" fill="#ffb401"/><path d="m280 440 24-32 24 16-24 64h-16z" fill="#e0edff"/><path d="m232 120h48a0 0 0 0 1 0 0v24a24 24 0 0 1 -24 24 24 24 0 0 1 -24-24v-24a0 0 0 0 1 0 0z" fill="#ffceb6"/><path d="m232 120v-16l19.359-12.906a18.42223 18.42223 0 0 1 10.21879-3.094 18.42218 18.42218 0 0 1 18.42221 18.42219v13.57781z" fill="#c78640"/><path d="m176 360h-24v72h16l24-40z" fill="#e0edff"/></svg>