<svg height="512" viewBox="0 0 512 512" width="512" xmlns="http://www.w3.org/2000/svg"><g id="Flat"><path d="m58.154 183.231 21.846 32.769 8-8 16 8 8-8h32v-32l-24-16-48-8-16 24z" fill="#fdc5ca"/><path d="m488 376h-48v-7.96556a13 13 0 0 1 7.18622-11.62755l8.81378-4.40689v-8l-80-16-64-24-2.85986-1.14014a302.82633 302.82633 0 0 1 -69.14014-38.85986l3.47-10.3999 12.53-37.6001a74.51609 74.51609 0 0 1 59.45 10.3l20.55 13.7 34.26 28.5498a85.60319 85.60319 0 0 1 21.74 27.4502 66.575 66.575 0 0 1 57.76 12.60986l14.24 11.39014 8-8h16z" fill="#fdc5ca"/><path d="m256 216-12.53 37.6001-3.47 10.3999-24-8h-40l-41.14014-20.57007 1.14014-3.42993-6.37012-6.37012a32.87133 32.87133 0 0 1 -9.62988-23.25v-.77978a32.89389 32.89389 0 0 1 14.64014-27.3601l1.07983-.72a32.86438 32.86438 0 0 1 18.24003-5.52h8.2a65.53918 65.53918 0 0 1 39.31 13.1001l14.53 10.8999z" fill="#e04446"/><path d="m120 160a28.82966 28.82966 0 0 1 -40 8l-15.40991 19.26-4.37009 5.47a17.51125 17.51125 0 0 1 -26.05005 1.43994l-10.16995-10.16994 6.82007-7.95 41.17993-48.05z" fill="#ba8b5d"/><path d="m64.59009 187.26-4.37009 5.47a17.51125 17.51125 0 0 1 -26.05005 1.43994l-10.16995-10.16994 6.82007-7.95.05981-.05 10.16012 10.16992a17.494 17.494 0 0 0 23.55009 1.09008z" fill="#9f764a"/><path d="m243.47 253.6-3.47 10.4-24-8h-40l-41.14-20.57 1.14-3.43-4.21-4.21 36.21-27.79 22.33 31 1.34 14.67h24z" fill="#d6323f"/><path d="m181.48 321.16992-4.04 40.41992a16.00193 16.00193 0 0 1 -15.92 14.41016h-57.52a19.30882 19.30882 0 0 1 5.65991-13.66016l4.68018-4.67968a19.3064 19.3064 0 0 1 13.65991-5.66016h24l-11.65991-46.6499a48.4144 48.4144 0 0 1 3.65991-33.3501 36.57507 36.57507 0 0 1 -8.84009-37.47l.84009-2.53-4.68994-4.68994a38.63351 38.63351 0 0 1 -11.31006-27.31006l40.12012 7.5 3.75976 9.37988c3.93018 9.83012 14.16012 12.67017 14.90012 23.12012q.25488 3.62988.26 7.27a102.16211 102.16211 0 0 1 -3.04 24.73 118.3193 118.3193 0 0 1 5.48 49.16992z" fill="#fdc5ca"/><path d="m135.15991 234.53.84009-2.53-4.68994-4.68994a38.63351 38.63351 0 0 1 -11.31006-27.31006h48l3.75 9.37012a101.73684 101.73684 0 0 1 7.03 30.62988h-44.99a36.79591 36.79591 0 0 1 1.36991-5.47z" fill="#e04446"/><path d="m336 240-19.21 51.23-4.79 12.77-2.85986-1.14014a302.82633 302.82633 0 0 1 -69.14014-38.85986l3.47-10.3999 12.53-37.6001a74.51609 74.51609 0 0 1 59.45 10.3z" fill="#68737f"/><path d="m456 344-80-16-64-24-2.85986-1.14014a302.82633 302.82633 0 0 1 -69.14014-38.85986l3.47-10.3999 73.32 37.6299 61.71 26.77 85.35005 18.42785z" fill="#fc979e"/><path d="m316.79 291.23-4.79 12.77-2.85986-1.14014a302.82633 302.82633 0 0 1 -69.14014-38.85986l3.47-10.3999z" fill="#4f5761"/><path d="m181.48 321.16992-4.04 40.41992a16.00193 16.00193 0 0 1 -15.92 14.41016h-16.22a26.62618 26.62618 0 0 0 26.29-22.41016l.97-6.06982a138.17564 138.17564 0 0 0 1.75-21.93018 138.66413 138.66413 0 0 0 -10.64014-53.25976 95.75716 95.75716 0 0 0 14.25-29.36011l.86014-2.96997q.25488 3.62988.26 7.27a102.16211 102.16211 0 0 1 -3.04 24.73 118.3193 118.3193 0 0 1 5.48 49.16992z" fill="#fc979e"/><path d="m488 312v64h-48v-7.97021a13.028 13.028 0 0 1 7.18994-11.61963l8.81006-4.41016v-8l8-24 8-8z" fill="#529ddf"/><path d="m472 360h-29.21a12.8635 12.8635 0 0 1 4.3999-3.58984l8.8101-4.41016v-8a15.99564 15.99564 0 0 1 16 16z" fill="#4384c3"/><path d="m440 376v-8h40v-56h8v64z" fill="#d4e4f0"/></g></svg>