<?xml version="1.0" encoding="iso-8859-1"?>
<!-- Generator: Adobe Illustrator 19.0.0, SVG Export Plug-In . SVG Version: 6.00 Build 0)  -->
<svg version="1.1" id="Capa_1" xmlns="http://www.w3.org/2000/svg" xmlns:xlink="http://www.w3.org/1999/xlink" x="0px" y="0px"
	 viewBox="0 0 512.59 512.59" style="enable-background:new 0 0 512.59 512.59;" xml:space="preserve">
<path style="fill:#FFD15C;" d="M327.279,57.771c0,0-8.533,13.867-9.6,24.533c-1.067,10.667-32-8.533-32-8.533l-2.133-13.867
	c0,0,1.067-42.667,2.133-42.667c1.067-1.067,13.867-3.2,13.867-3.2L327.279,57.771L327.279,57.771z"/>
<path style="fill:#F5B54C;" d="M324.079,64.171c-1.067,2.133-2.133,3.2-3.2,5.333l-18.133-28.8L324.079,64.171z"/>
<g>
	<path style="fill:#FFD15C;" d="M299.546,26.838c0,0,14.933,36.267,34.133,39.467c1.067,0,2.133,0,3.2-1.067s2.133-3.2,0-6.4v-4.267
		c0,0,0-2.133-1.067-2.133c0,0,1.067,0,1.067-2.133c0-1.067,0-4.267,0-4.267s5.333,0,4.267-3.2c-1.067-3.2-7.467-8.533-7.467-8.533
		s-1.067-1.067,0-3.2c1.067-3.2-1.067-6.4-1.067-6.4l-10.667-16l-17.067-6.4C304.879,3.371,287.813,19.371,299.546,26.838z"/>
	<path style="fill:#FFD15C;" d="M296.346,31.105c0,0,21.333,42.667,39.467,34.133l-34.133-44.8L296.346,31.105z"/>
</g>
<path style="fill:#425A6B;" d="M317.679,34.305v6.4h-4.267c0-1.067-1.067-7.467-3.2-9.6c-3.2-2.133-9.6-4.267-11.733,1.067
	s-1.067,22.4-1.067,22.4s-10.667,2.133-12.8,6.4c0,0-11.733-25.6-9.6-37.333c1.067-12.8,13.867-20.267,13.867-20.267
	s10.667-4.267,21.333-3.2c6.4,1.067,11.733,5.333,13.867,10.667c0,1.067,0,2.133,0,2.133s-11.733-4.267-7.467,1.067
	c0,1.067,1.067,1.067,1.067,2.133c1.067,2.133,1.067,4.267,1.067,5.333C317.679,26.838,316.613,30.038,317.679,34.305z"/>
<g>
	<path style="fill:#FFD15C;" d="M313.413,42.838c0,0,0,4.267-4.267,2.133c-4.267-2.133-12.8-9.6-8.533-18.133
		c0,0,4.267-6.4,8.533,2.133S313.413,42.838,313.413,42.838z"/>
	<path style="fill:#FFD15C;" d="M248.346,339.371l2.133,11.733c0,0-8.533,11.733-13.867,14.933c-5.333,3.2-16,16-16,16
		s-17.067,23.467-30.933,34.133c-12.8,11.733-19.2,37.333-19.2,37.333s-24.533-3.2-25.6-16l6.4-6.4c0,0,17.067-20.267,20.267-32
		c3.2-11.733,24.533-50.133,37.333-55.467C222.746,339.371,248.346,339.371,248.346,339.371z"/>
	<path style="fill:#FFD15C;" d="M307.013,322.305l4.267,13.867l6.4,6.4c0,0,1.067,2.133,0,4.267
		c-1.067,2.133-4.267,27.733-1.067,51.2c3.2,22.4,1.067,56.533,1.067,56.533s24.533,12.8,26.667,0c0,0-4.267-23.467-2.133-37.333
		s6.4-27.733,5.333-48c0,0,2.133-17.067,5.333-21.333c3.2-4.267,4.267-16,0-22.4c-4.267-5.333-21.333-8.533-21.333-8.533
		L307.013,322.305z"/>
</g>
<path style="fill:#425A6B;" d="M389.146,487.638c0-1.067-1.067-2.133-2.133-2.133c-9.6-2.133-16-6.4-24.533-12.8
	c-9.6-7.467-17.067-24.533-17.067-24.533c-7.467,6.4-29.867,3.2-29.867,3.2l-6.4,13.867l1.067,2.133l11.733,11.733l59.733,14.933
	c1.067,0,4.267-1.067,7.467-3.2C389.146,489.771,389.146,487.638,389.146,487.638z"/>
<path style="fill:#E8EAE8;" d="M389.146,487.638c0,0-18.133,3.2-28.8-3.2c-2.133-1.067-4.267-2.133-6.4-2.133
	c-9.6-1.067-33.067-7.467-40.533-13.867c0,0-5.333-4.267-6.4-2.133c0,0-5.333,4.267-3.2,9.6c2.133,5.333,19.2,9.6,19.2,9.6
	s9.6,4.267,21.333,7.467c9.6,2.133,28.8,5.333,38.4,3.2C387.013,494.038,390.213,490.838,389.146,487.638L389.146,487.638z"/>
<path style="fill:#425A6B;" d="M176.879,510.038c1.067-1.067,1.067-2.133,0-3.2c-5.333-8.533-7.467-14.933-8.533-26.667
	c-2.133-11.733,4.267-28.8,4.267-28.8c-9.6,0-23.467-18.133-23.467-18.133l-13.867,4.267l-1.067,2.133v16l32,52.267
	c1.067,1.067,4.267,2.133,7.467,3.2C174.746,511.105,176.879,510.038,176.879,510.038z"/>
<path style="fill:#E8EAE8;" d="M176.879,510.038c0,0-14.933-9.6-18.133-22.4c0-2.133-1.067-4.267-3.2-5.333
	c-5.333-7.467-18.133-27.733-19.2-37.333c0,0,0-6.4-3.2-6.4c0,0-6.4,0-9.6,4.267c-2.133,5.333,7.467,20.267,7.467,20.267
	s4.267,9.6,10.667,20.267c4.267,8.533,17.067,23.467,25.6,28.8C170.479,513.238,174.746,512.171,176.879,510.038L176.879,510.038z"
	/>
<path style="fill:#425A6B;" d="M239.813,231.638l-9.6,8.533c0,0-2.133,7.467,2.133,16c3.2,9.6-2.133,20.267-2.133,20.267
	s-9.6,28.8-9.6,41.6c0,11.733-10.667,25.6-10.667,25.6c14.933,7.467,28.8,9.6,41.6,6.4l32-40.533l27.733,25.6
	c0,0,12.8-16,41.6-11.733c0,0-13.867-39.467-21.333-50.133s-10.667-22.4-19.2-29.867
	C303.813,236.971,239.813,231.638,239.813,231.638z"/>
<path style="fill:#F5B54C;" d="M260.079,116.438l8.533,57.6c0,0-20.267-8.533-28.8-16c-4.267-3.2-7.467-5.333-9.6-6.4
	c-4.267-2.133-6.4-6.4-5.333-9.6c0-1.067,0-2.133,1.067-4.267c2.133-6.4,7.467-21.333,11.733-27.733
	C244.079,104.705,260.079,116.438,260.079,116.438z"/>
<path style="fill:#425A6B;" d="M261.146,84.438l-22.4,25.6c0,0,6.4,12.8,22.4,19.2l20.267-41.6L261.146,84.438z"/>
<path style="fill:#F26F5A;" d="M262.213,82.305c0,0-9.6,30.933-8.533,48c1.067,17.067,3.2,37.333,1.067,45.867
	c-2.133,9.6-8.533,34.133-9.6,36.267c0,0-14.933,11.733-14.933,27.733c0,0,5.333,1.067,18.133,5.333
	c12.8,4.267,27.733,4.267,27.733,4.267s22.4,4.267,26.667,6.4c4.267,1.067,11.733-4.267,11.733-4.267s-5.333-17.067-4.267-24.533
	c1.067-7.467,12.8-44.8,12.8-55.467v-9.6c0,0,10.667-20.267,11.733-37.333c1.067-17.067-3.2-35.2-16-45.867
	c-11.733-9.6-17.067-12.8-17.067-12.8h-2.133c0,0-11.733,0-17.067,1.067c-1.067,0-1.067,0-2.133,0c-3.2,0-6.4,5.333-6.4,5.333
	s-1.067,4.267-6.4,5.333C263.279,79.105,262.213,82.305,262.213,82.305z"/>
<path style="fill:#FFD15C;" d="M323.013,134.571l-1.067,6.4c0,0-2.133,3.2-1.067,6.4c0,0,6.4,7.467,8.533,11.733
	c2.133,4.267,9.6,2.133,9.6,2.133l5.333-7.467c0,0,5.333-2.133,6.4-4.267c0,0,2.133,0,3.2,0c1.067,1.067,2.133,2.133,3.2,2.133
	s1.067,4.267-3.2,3.2v1.067h6.4c0,0,1.067,4.267,1.067,6.4c0,0,2.133,0,2.133,3.2c0,2.133-2.133,3.2-2.133,3.2
	s1.067,1.067,1.067,3.2c0,2.133-1.067,2.133-1.067,2.133s1.067,1.067,1.067,3.2c0,2.133-2.133,3.2-2.133,3.2s-7.467,1.067-9.6,2.133
	c-2.133,1.067-9.6-2.133-9.6-2.133s-11.733,0-16,1.067c-5.333,1.067-16,0-23.467-5.333c0,0-6.4-1.067-7.467-6.4
	c0,0-8.533-10.667-7.467-34.133c0,0,0,0,0-1.067c1.067-16,22.4-21.333,30.933-8.533L323.013,134.571z"/>
<path style="fill:#425A6B;" d="M334.746,102.571c0,3.2-1.067,6.4-3.2,8.533c-6.4,6.4-7.467,12.8-7.467,12.8s0,11.733-3.2,17.067
	c-5.333-10.667-24.533-13.867-35.2-6.4c0,0-4.267-18.133,2.133-30.933c5.333-7.467,6.4-21.333,7.467-28.8
	c0-3.2,1.067-8.533,5.333-9.6c1.067,0,3.2,0,3.2,0s5.333,2.133,17.067,12.8C327.279,84.438,332.613,92.971,334.746,102.571z"/>
<polygon style="fill:#344A5E;" points="305.946,274.305 298.479,323.371 283.546,309.505 "/>
<g>
</g>
<g>
</g>
<g>
</g>
<g>
</g>
<g>
</g>
<g>
</g>
<g>
</g>
<g>
</g>
<g>
</g>
<g>
</g>
<g>
</g>
<g>
</g>
<g>
</g>
<g>
</g>
<g>
</g>
</svg>
