<svg height="512" viewBox="0 0 512 512" width="512" xmlns="http://www.w3.org/2000/svg"><g id="Flat"><path d="m432 168-16 16-32 8 8 16-8 16 16 24v24l32-8 24-40z" fill="#fdc5ca"/><path d="m424 152-5.87375 5.87375a16 16 0 0 0 -1.18019 21.30883 63.33 63.33 0 0 1 9.348 63.08212l-2.29406 5.7353 48-40z" fill="#ba8b5d"/><path d="m72 312 66.32766-126.62553a32 32 0 0 1 52.42906-6.22393l81.24328 92.84946v80a79.99992 79.99992 0 0 1 -70.58816-42.3529l-41.41184-77.6471-4.77472 23.87361a28.339 28.339 0 0 1 -18.8271 21.327 28.339 28.339 0 0 0 -13.70962 9.88134l-18.68856 24.91805-16 8z" fill="#fdc5ca"/><path d="m104 312v40h-80a33.22874 33.22874 0 0 1 6.28-19.47 33.31906 33.31906 0 0 1 16.49-12.12l25.23-8.41z" fill="#529ddf"/><path d="m272 352h-30.24364a56 56 0 0 1 -42.51836-19.55568l-31.238-36.44432 62.99213-70.86614 41.00787 46.86614z" fill="#68737f"/><path d="m486.21 229.11a16.68758 16.68758 0 0 1 -.49 4.02 85.19134 85.19134 0 0 1 -22.39 39.54l-16.25 16.25a180.09763 180.09763 0 0 1 -52.79 36.59l-22.8 10.36a179.995 179.995 0 0 1 -74.48 16.13h-25.01v-80l72-8 40-16h24l24.47-15.29 28.32-17.7a16.60935 16.60935 0 0 1 25.42 14.1z" fill="#e04446"/><path d="m486.21 229.11a16.68758 16.68758 0 0 1 -.49 4.02 85.19134 85.19134 0 0 1 -22.39 39.54l-2.53 2.53-28.33-42.49 28.32-17.7a16.60935 16.60935 0 0 1 25.42 14.1z" fill="#fdc5ca"/><path d="m408 248-16 32-14.31-7.16 12.42-24.84z" fill="#d6323f"/><path d="m104 344v8h-80a33.69971 33.69971 0 0 1 .97-8z" fill="#d4e4f0"/></g></svg>