<svg id="filled_outline" height="512" viewBox="0 0 512 512" width="512" xmlns="http://www.w3.org/2000/svg" data-name="filled outline"><path d="m176 96v40h48v-40z" fill="#ffbfa1"/><path d="m352.65 323.62-64.65 116.38-82.15 20.54 74.15-156.54-73-9.73-47-6.27v-48.8l69.92 3.5 80.02 4a51.817 51.817 0 0 1 42.71 76.92z" fill="#ffbfa1"/><path d="m229.92 242.7-22.92 51.57-47-6.27v-48.8z" fill="#ffa100"/><path d="m344 128h96v16l-32 24h-64z" fill="#ffbfa1"/><path d="m224 456 64-16 56 32v16h-120z" fill="#c5dafa"/><path d="m392 128v16l-32 24h-40l-80 21.33-40 10.67-32 48 33.11 5.52 76.74 12.7901a40.87342 40.87342 0 0 1 26.24 64.48l-80.09 109.2099-64 16 72-128h-86.85a73.14173 73.14173 0 0 1 -69.82-94.96 72.33465 72.33465 0 0 1 3.63-9.33 73.6278 73.6278 0 0 1 6.05-10.5l49.45-71.42a31.97878 31.97878 0 0 1 26.31-13.79z" fill="#ffceb6"/><path d="m192 80 16-16h32v32a32 32 0 0 1 -32 32 32 32 0 0 1 -32-32v-16z" fill="#ffceb6"/><path d="m240 64v-16a24 24 0 0 0 -24-24 23.99994 23.99994 0 0 0 -14.4 4.8l-25.6 19.2v32h16l16-16z" fill="#c78640"/><path d="m240 128v61.33l-40 10.67-32 48-89.04-24.29a73.6278 73.6278 0 0 1 6.05-10.5l49.45-71.42a31.97878 31.97878 0 0 1 26.31-13.79z" fill="#548aff"/><path d="m160 456 64-16 56 32v16h-120z" fill="#e0edff"/><path d="m201.11 253.52-33.11 74.48h-22.85a73.14173 73.14173 0 0 1 -69.82-94.96 72.33465 72.33465 0 0 1 3.63-9.33l89.04 24.29z" fill="#ffb401"/><path d="m145.1499 336h73.17139l-65.29395 116.07812a8.00073 8.00073 0 0 0 -1.02734 3.92188v32a7.99977 7.99977 0 0 0 8 8h184a7.99977 7.99977 0 0 0 8-8v-16a7.99919 7.99919 0 0 0 -4.03076-6.9458l-49.13724-28.07861 60.816-109.46875a59.82248 59.82248 0 0 0 -49.30669-88.79984l-122.44931-6.12259 17.0885-25.63275 116.06784-30.95166h86.95166a7.99948 7.99948 0 0 0 4.7998-1.6001l32-24a7.99927 7.99927 0 0 0 3.2002-6.3999v-16a7.99977 7.99977 0 0 0 -8-8h-200.02185a39.79044 39.79044 0 0 0 8.02185-24v-48a31.99988 31.99988 0 0 0 -51.19971-25.6001l-25.60009 19.2002a7.99927 7.99927 0 0 0 -3.2002 6.3999v48a39.79044 39.79044 0 0 0 8.02185 24h-15.25525a40.00815 40.00815 0 0 0 -32.88769 17.23145l-49.4502 71.42773a81.15 81.15 0 0 0 66.72119 127.34082zm93.75586-12.03857a7.99979 7.99979 0 0 0 -6.90576-3.96143h-51.68988l25.58807-57.57324 70.637 11.77295a32.86829 32.86829 0 0 1 21.10156 51.8584l-78.37949 106.88122-43.17883 10.7948 62.89423-111.81225a7.99944 7.99944 0 0 0 -.0669-7.96045zm33.09424 156.03857h-104v-17.75366l54.822-13.70557 49.178 28.10181zm64-3.35742v3.35742h-48v-8a7.99919 7.99919 0 0 0 -4.03076-6.9458l-18.41986-10.52564 21.37622-5.92856zm7.81641-202.4961a43.65724 43.65724 0 0 1 1.84521 45.58985l-63.02789 113.45-36.64673 10.16389-10.23456-5.84822 74.78662-101.982a48.86814 48.86814 0 0 0 -31.37353-77.10254l-44.99048-7.49846 75.36743 3.76849a44.00111 44.00111 0 0 1 34.27393 19.45899zm88.18359-134.14648-26.6665 20h-21.33381l12.80011-9.6001a7.99927 7.99927 0 0 0 3.2002-6.3999v-8h32zm-48-4v4l-26.6665 20h-37.3335a8.00964 8.00964 0 0 0 -2.06152.27l-69.93848 18.65029v-42.92029zm-177.6001-100.80029a16.00037 16.00037 0 0 1 25.6001 12.80029v8h-24a7.99877 7.99877 0 0 0 -5.65674 2.34326l-13.65726 13.65674h-4.686v-20zm-22.3999 60.80029v-8h8a7.99877 7.99877 0 0 0 5.65674-2.34326l13.65726-13.65674h20.686v24a24 24 0 0 1 -48 0zm-42.96582 50.33887a24.00427 24.00427 0 0 1 19.73242-10.33887h71.2334v47.187l-34.06152 9.083a8.00191 8.00191 0 0 0 -4.59473 3.29248l-28.80145 43.20217-73.57758-20.06659c.207-.31018.40656-.62421.61926-.93146zm-57.374 86.95172 82.23482 22.42767.00269-.00989a7.97073 7.97073 0 0 0 .78686.18274l22.912 3.81873-26.79555 60.29016h-17.6511a65.1755 65.1755 0 0 1 -61.48974-86.70941z"/></svg>